<svg width="36" height="36" viewBox="0 0 36 36" fill="none" xmlns="http://www.w3.org/2000/svg">
<g clip-path="url(#clip0_737_473)">
<rect width="36" height="36" fill="white"/>
<rect x="10" y="10" width="62" height="62" rx="31" fill="url(#paint0_linear_737_473)" fill-opacity="0.4"/>
<path d="M7.0269 25C6.88023 25 6.76023 24.9533 6.6669 24.86C6.57357 24.7667 6.5269 24.6467 6.5269 24.5V11.5C6.5269 11.3533 6.57357 11.2333 6.6669 11.14C6.76023 11.0467 6.88023 11 7.0269 11H9.2469C9.39357 11 9.51357 11.0467 9.6069 11.14C9.70023 11.2333 9.7469 11.3533 9.7469 11.5V22.32H15.9469C16.0936 22.32 16.2136 22.3667 16.3069 22.46C16.4002 22.5533 16.4469 22.6733 16.4469 22.82V24.5C16.4469 24.6467 16.4002 24.7667 16.3069 24.86C16.2136 24.9533 16.0936 25 15.9469 25H7.0269ZM22.4159 25.2C21.6426 25.2 20.9559 25.0267 20.3559 24.68C19.7692 24.32 19.3092 23.8067 18.9759 23.14C18.6559 22.46 18.4959 21.64 18.4959 20.68V15.1C18.4959 14.9533 18.5426 14.8333 18.6359 14.74C18.7292 14.6467 18.8426 14.6 18.9759 14.6H21.0959C21.2426 14.6 21.3626 14.6467 21.4559 14.74C21.5492 14.8333 21.5959 14.9533 21.5959 15.1V20.56C21.5959 22.0533 22.2492 22.8 23.5559 22.8C24.1826 22.8 24.6759 22.6067 25.0359 22.22C25.4092 21.82 25.5959 21.2667 25.5959 20.56V15.1C25.5959 14.9533 25.6426 14.8333 25.7359 14.74C25.8292 14.6467 25.9492 14.6 26.0959 14.6H28.2159C28.3492 14.6 28.4626 14.6467 28.5559 14.74C28.6492 14.8333 28.6959 14.9533 28.6959 15.1V24.5C28.6959 24.6467 28.6492 24.7667 28.5559 24.86C28.4626 24.9533 28.3492 25 28.2159 25H26.2559C26.1092 25 25.9892 24.9533 25.8959 24.86C25.8026 24.7667 25.7559 24.6467 25.7559 24.5V23.72C25.4092 24.2 24.9626 24.5667 24.4159 24.82C23.8692 25.0733 23.2026 25.2 22.4159 25.2Z" fill="black"/>
</g>
<defs>
<linearGradient id="paint0_linear_737_473" x1="41" y1="10" x2="41" y2="72" gradientUnits="userSpaceOnUse">
<stop stop-color="#876CD3"/>
<stop offset="0.973958" stop-color="#9667BE"/>
</linearGradient>
<clipPath id="clip0_737_473">
<rect width="36" height="36" fill="white"/>
</clipPath>
</defs>
</svg>
